<?xml version="1.0" standalone="no"?>
<!DOCTYPE svg PUBLIC "-//W3C//DTD SVG 20010904//EN"
 "http://www.w3.org/TR/2001/REC-SVG-20010904/DTD/svg10.dtd">
<svg version="1.0" xmlns="http://www.w3.org/2000/svg"
 width="329.000000pt" height="135.000000pt" viewBox="0 0 329.000000 135.000000"
 preserveAspectRatio="xMidYMid meet">

<g transform="translate(0.000000,135.000000) scale(0.100000,-0.100000)"
fill="#000000" stroke="none">
<path d="M773 1143 c32 -2 81 -2 110 0 29 2 3 3 -58 3 -60 0 -84 -1 -52 -3z"/>
<path d="M650 1130 c-20 -6 -21 -8 -5 -8 11 0 31 4 45 8 20 6 21 8 5 8 -11 0
-31 -4 -45 -8z"/>
<path d="M948 1133 c7 -3 16 -2 19 1 4 3 -2 6 -13 5 -11 0 -14 -3 -6 -6z"/>
<path d="M500 1075 c-211 -110 -335 -282 -302 -419 l10 -41 1 52 c1 66 23 124
72 188 80 107 155 172 265 229 27 14 42 25 34 25 -8 0 -44 -15 -80 -34z"/>
<path d="M1086 1081 c72 -52 79 -65 79 -145 0 -60 -4 -76 -25 -104 -13 -18
-38 -42 -55 -52 -38 -25 -13 -25 40 -1 53 24 84 60 92 104 13 82 -21 144 -106
199 -58 36 -75 36 -25 -1z"/>
<path d="M1511 1045 c1 -19 18 -51 18 -35 0 8 -4 22 -9 30 -5 8 -9 11 -9 5z"/>
<path d="M1014 968 c-99 -103 -146 -163 -258 -331 -121 -182 -192 -257 -278
-297 -75 -35 -71 -38 9 -9 115 43 220 118 273 194 16 23 62 105 103 183 85
159 115 205 182 280 67 75 51 64 -31 -20z"/>
<path d="M605 950 c-25 -11 1 -11 35 0 20 6 21 8 5 8 -11 0 -29 -3 -40 -8z"/>
<path d="M1523 926 c-8 -22 -73 -136 -125 -221 -33 -53 -38 -62 -117 -198 -56
-97 -66 -150 -33 -180 18 -16 18 -16 15 11 -4 27 26 85 153 300 27 46 54 91
59 100 6 9 34 56 63 103 28 48 52 89 52 92 0 2 -13 7 -30 9 -23 4 -31 0 -37
-16z"/>
<path d="M509 904 c-117 -77 -186 -196 -149 -254 7 -11 10 -7 10 19 0 69 77
175 171 238 22 14 39 27 39 29 0 11 -23 0 -71 -32z"/>
<path d="M772 865 c0 -16 2 -22 5 -12 2 9 2 23 0 30 -3 6 -5 -1 -5 -18z"/>
<path d="M948 753 c12 -2 32 -2 45 0 12 2 2 4 -23 4 -25 0 -35 -2 -22 -4z"/>
<path d="M3074 720 c-15 -22 -25 -43 -22 -46 7 -6 68 63 68 76 0 22 -21 8 -46
-30z"/>
<path d="M1087 712 c38 -38 48 -81 39 -160 -10 -89 -91 -202 -168 -238 l-33
-15 40 6 c118 19 226 142 225 258 -1 47 -33 111 -71 139 -55 41 -66 44 -32 10z"/>
<path d="M2369 646 c16 -19 -10 -76 -93 -208 -36 -58 -66 -108 -66 -112 0 -3
13 -6 28 -6 24 0 35 11 78 80 64 105 75 127 85 168 9 40 -2 77 -27 86 -13 5
-15 4 -5 -8z"/>
<path d="M1605 612 c-33 -21 -81 -62 -107 -91 -43 -48 -48 -58 -48 -102 0 -40
5 -54 28 -77 15 -15 24 -23 20 -18 -15 19 -8 82 13 121 40 76 89 143 126 174
51 41 40 39 -32 -7z"/>
<path d="M1987 623 c-58 -31 -143 -111 -157 -148 -19 -50 -12 -102 18 -133 15
-15 24 -23 20 -18 -33 42 26 180 114 268 32 32 57 58 56 57 -2 0 -25 -12 -51
-26z"/>
<path d="M2560 625 c0 -27 -51 -127 -125 -245 l-35 -55 27 -3 c29 -4 30 -3 80
73 79 121 105 214 68 245 -13 11 -15 8 -15 -15z"/>
<path d="M2770 619 c0 -13 -18 -50 -39 -81 -50 -72 -81 -132 -81 -157 0 -11
11 -32 24 -47 l23 -28 -4 30 c-3 21 5 43 29 79 64 96 78 126 78 164 0 22 -6
44 -15 51 -13 10 -15 9 -15 -11z"/>
<path d="M963 623 c9 -2 25 -2 35 0 9 3 1 5 -18 5 -19 0 -27 -2 -17 -5z"/>
<path d="M210 601 c0 -6 4 -13 10 -16 6 -3 7 1 4 9 -7 18 -14 21 -14 7z"/>
<path d="M3051 524 c-2 -95 -73 -196 -146 -207 -24 -3 -21 -4 13 -6 83 -2 173
66 171 131 0 12 -9 48 -19 78 l-19 55 0 -51z"/>
<path d="M1696 531 c-21 -22 -27 -36 -24 -62 2 -19 7 -33 13 -33 14 2 67 102
60 114 -10 16 -19 12 -49 -19z"/>
<path d="M2067 532 c-27 -28 -37 -84 -18 -97 12 -7 74 101 66 115 -10 16 -19
12 -48 -18z"/>
<path d="M2873 498 c-25 -28 -38 -53 -47 -93 l-7 -30 20 32 c12 19 39 40 66
52 34 15 46 25 43 38 -5 28 -50 28 -75 1z"/>
<path d="M368 503 c7 -3 16 -2 19 1 4 3 -2 6 -13 5 -11 0 -14 -3 -6 -6z"/>
<path d="M160 480 c-13 -13 -20 -32 -19 -52 l2 -33 6 35 c6 31 7 32 13 13 7
-25 36 -31 56 -11 17 17 15 55 -4 62 -25 9 -33 7 -54 -14z"/>
<path d="M771 434 c0 -11 3 -14 6 -6 3 7 2 16 -1 19 -3 4 -6 -2 -5 -13z"/>
<path d="M770 366 c0 -8 4 -17 9 -20 5 -4 7 3 4 14 -6 23 -13 26 -13 6z"/>
<path d="M878 293 c6 -2 18 -2 25 0 6 3 1 5 -13 5 -14 0 -19 -2 -12 -5z"/>
</g>
</svg>
