<?xml version="1.0" standalone="no"?>
<!DOCTYPE svg PUBLIC "-//W3C//DTD SVG 20010904//EN"
 "http://www.w3.org/TR/2001/REC-SVG-20010904/DTD/svg10.dtd">
<svg version="1.0" xmlns="http://www.w3.org/2000/svg"
 width="135.000000pt" height="43.000000pt" viewBox="0 0 135.000000 43.000000"
 preserveAspectRatio="xMidYMid meet">

<g transform="translate(0.000000,43.000000) scale(0.100000,-0.100000)"
fill="#000000" stroke="none">
<path d="M288 403 c12 -2 32 -2 45 0 12 2 2 4 -23 4 -25 0 -35 -2 -22 -4z"/>
<path d="M238 393 c7 -3 16 -2 19 1 4 3 -2 6 -13 5 -11 0 -14 -3 -6 -6z"/>
<path d="M121 340 c-53 -38 -81 -85 -80 -130 1 -35 1 -35 11 9 7 33 23 58 63
98 30 29 52 53 51 53 -2 0 -22 -14 -45 -30z"/>
<path d="M443 359 c24 -14 23 -73 -3 -99 -14 -14 -16 -20 -7 -20 23 0 47 35
47 67 0 28 -26 63 -46 63 -5 0 -1 -5 9 -11z"/>
<path d="M354 282 c-17 -21 -48 -63 -68 -95 -20 -31 -51 -73 -69 -93 l-32 -37
30 16 c38 19 66 50 97 107 14 25 37 66 52 93 15 26 26 47 24 47 -2 0 -17 -17
-34 -38z"/>
<path d="M610 308 c0 -6 -26 -57 -58 -112 -66 -114 -75 -133 -62 -141 5 -3 11
3 14 12 3 10 35 68 71 128 36 61 65 113 65 118 0 4 -7 7 -15 7 -8 0 -15 -5
-15 -12z"/>
<path d="M146 270 c-25 -28 -36 -49 -35 -68 l2 -27 4 28 c3 16 22 46 44 68 21
21 35 39 30 39 -5 0 -25 -18 -45 -40z"/>
<path d="M1279 213 c-13 -16 -12 -17 4 -4 16 13 21 21 13 21 -2 0 -10 -8 -17
-17z"/>
<path d="M433 206 c4 -6 7 -29 7 -53 0 -33 -7 -50 -32 -79 l-33 -37 31 16 c41
21 54 38 61 79 4 27 0 40 -18 59 -13 14 -21 20 -16 15z"/>
<path d="M981 179 c0 -8 -16 -41 -35 -72 -22 -37 -30 -57 -21 -57 21 0 67 87
62 118 -2 15 -5 20 -6 11z"/>
<path d="M1056 165 c-4 -15 -18 -44 -32 -64 -25 -38 -30 -51 -15 -51 11 0 56
69 63 96 3 12 2 27 -2 34 -5 8 -10 2 -14 -15z"/>
<path d="M1127 131 c-26 -48 -35 -82 -19 -80 13 0 61 105 53 117 -4 6 -18 -9
-34 -37z"/>
<path d="M609 139 c-29 -31 -38 -72 -19 -84 6 -3 10 2 10 11 0 9 11 37 25 61
30 51 24 55 -16 12z"/>
<path d="M769 141 c-29 -29 -39 -74 -19 -86 6 -3 10 4 10 17 0 13 11 40 25 61
31 44 24 48 -16 8z"/>
<path d="M686 134 c-3 -9 -6 -23 -6 -32 1 -12 5 -10 15 8 8 14 14 28 15 33 0
13 -18 7 -24 -9z"/>
<path d="M842 125 c-6 -13 -8 -27 -3 -29 7 -5 31 34 31 49 0 15 -18 1 -28 -20z"/>
<path d="M1271 132 c-1 -13 -8 -36 -16 -52 -18 -34 -7 -40 20 -10 15 16 16 25
7 52 -8 27 -10 29 -11 10z"/>
<path d="M1184 105 c-23 -35 -15 -36 21 -3 23 21 26 28 13 28 -10 0 -25 -11
-34 -25z"/>
<path d="M25 111 c-3 -5 -1 -12 5 -16 12 -7 30 2 30 16 0 12 -27 12 -35 0z"/>
</g>
</svg>
